<svg xmlns="http://www.w3.org/2000/svg" viewBox="0 0 275 100" width="275" height="100">
  <path d="M24,16 L52,16 A8,8 0 0 1 52,32 L32,32 L32,42 L64,42 A8,8 0 0 1 64,58 L32,58 L32,68 L52,68 A8,8 0 0 1 52,84 L24,84 A8,8 0 0 1 16,76 L16,24 A8,8 0 0 1 24,16 Z" fill="#FF4A00"/>
  <g transform="translate(80.1806640625, 62.4658203125)">
    <path d="M14.22 0.49L14.22 0.49Q10.38 0.49 7.59-1.08Q4.81-2.65 3.31-5.55Q1.82-8.45 1.82-12.42L1.82-12.42Q1.82-16.31 3.31-19.23Q4.81-22.15 7.51-23.79Q10.22-25.43 13.88-25.43L13.88-25.43Q17.16-25.43 19.83-24.03Q22.51-22.64 24.09-19.81Q25.67-16.98 25.67-12.69L25.67-12.69L25.67-10.80L8.49-10.80Q8.60-7.73 10.20-6.15Q11.79-4.58 14.33-4.58L14.33-4.58Q16.10-4.58 17.37-5.33Q18.64-6.09 19.18-7.55L19.18-7.55L25.29-6.40Q24.37-3.28 21.48-1.39Q18.60 0.49 14.22 0.49ZM8.54-15.03L8.54-15.03L19.18-15.03Q18.93-17.47 17.61-18.91Q16.28-20.35 13.95-20.35L13.95-20.35Q11.52-20.35 10.13-18.86Q8.74-17.36 8.54-15.03ZM35.49 0L28.35 0L36.43-12.89L28.84-25.11L36.12-25.11L38.39-21.16Q39.06-19.90 39.65-18.68Q40.25-17.45 40.81-16.26L40.81-16.26Q41.37-17.45 41.97-18.69Q42.56-19.92 43.28-21.16L43.28-21.16L45.64-25.11L52.78-25.11L45.03-12.80L53.14 0L45.91 0L43.13-4.74Q42.43-5.95 41.82-7.17Q41.22-8.38 40.65-9.55L40.65-9.55Q40.12-8.38 39.54-7.17Q38.97-5.95 38.27-4.74L38.27-4.74L35.49 0ZM68.19 0.49L68.19 0.49Q64.42 0.49 61.66-1.13Q58.89-2.76 57.40-5.67Q55.91-8.58 55.91-12.44L55.91-12.44Q55.91-16.33 57.40-19.25Q58.89-22.17 61.66-23.80Q64.42-25.43 68.19-25.43L68.19-25.43Q71.96-25.43 74.73-23.80Q77.49-22.17 78.98-19.25Q80.48-16.33 80.48-12.44L80.48-12.44Q80.48-8.58 78.98-5.67Q77.49-2.76 74.73-1.13Q71.96 0.49 68.19 0.49ZM68.19-4.81L68.19-4.81Q70.89-4.81 72.26-6.99Q73.63-9.16 73.63-12.47L73.63-12.47Q73.63-15.79 72.26-17.96Q70.89-20.13 68.19-20.13L68.19-20.13Q65.50-20.13 64.14-17.96Q62.78-15.79 62.78-12.47L62.78-12.47Q62.78-9.16 64.14-6.99Q65.50-4.81 68.19-4.81ZM97.26 0L90.41 0L82.99-25.11L90.07-25.11L92.25-15.83Q92.70-13.75 93.24-11.34Q93.77-8.94 94.29-6.13L94.29-6.13Q94.81-8.87 95.38-11.29Q95.95-13.70 96.47-15.83L96.47-15.83L98.76-25.11L104.96-25.11L107.21-15.83Q107.68-13.70 108.25-11.30Q108.82-8.89 109.36-6.11L109.36-6.11Q109.83-8.89 110.35-11.30Q110.87-13.70 111.36-15.83L111.36-15.83L113.54-25.11L120.71-25.11L113.25 0L106.40 0L103.61-9.68Q103.14-11.30 102.70-13.32Q102.26-15.34 101.82-17.32L101.82-17.32Q101.39-15.34 100.94-13.31Q100.49-11.28 100.04-9.68L100.04-9.68L97.26 0ZM131.01 0L124.28 0L124.28-25.11L131.01-25.11L131.01 0ZM127.65-28.39L127.65-28.39Q126.12-28.39 125.04-29.40Q123.96-30.41 123.96-31.85L123.96-31.85Q123.96-33.29 125.04-34.30Q126.12-35.31 127.65-35.31L127.65-35.31Q129.17-35.31 130.26-34.30Q131.35-33.29 131.35-31.85L131.35-31.85Q131.35-30.41 130.26-29.40Q129.17-28.39 127.65-28.39ZM157.52 0L136.56 0L136.56-4.09L148.94-19.50L148.94-19.68L136.94-19.68L136.94-25.11L157.09-25.11L157.09-20.64L145.41-5.62L145.41-5.44L157.52-5.44L157.52 0ZM183.87 0L162.91 0L162.91-4.09L175.29-19.50L175.29-19.68L163.29-19.68L163.29-25.11L183.44-25.11L183.44-20.64L171.76-5.62L171.76-5.44L183.87-5.44L183.87 0Z" fill="#1A1A2E"/>
  </g>
</svg>